<?xml version="1.0" encoding="UTF-8" standalone="no"?>
<svg
   xmlns:dc="http://purl.org/dc/elements/1.1/"
   xmlns:cc="http://creativecommons.org/ns#"
   xmlns:rdf="http://www.w3.org/1999/02/22-rdf-syntax-ns#"
   xmlns:svg="http://www.w3.org/2000/svg"
   xmlns="http://www.w3.org/2000/svg"
   xmlns:xlink="http://www.w3.org/1999/xlink"
   xmlns:sodipodi="http://sodipodi.sourceforge.net/DTD/sodipodi-0.dtd"
   xmlns:inkscape="http://www.inkscape.org/namespaces/inkscape"
   width="1008.426"
   height="645.42102"
   version="1.1"
   id="svg178"
   sodipodi:docname="wall-gtk4.svg"
   inkscape:version="1.0.2 (e86c870879, 2021-01-15)">
  <metadata
     id="metadata182">
    <rdf:RDF>
      <cc:Work
         rdf:about="">
        <dc:format>image/svg+xml</dc:format>
        <dc:type
           rdf:resource="http://purl.org/dc/dcmitype/StillImage" />
        <dc:title></dc:title>
      </cc:Work>
    </rdf:RDF>
  </metadata>
  <sodipodi:namedview
     pagecolor="#ffffff"
     bordercolor="#666666"
     borderopacity="1"
     objecttolerance="10"
     gridtolerance="10"
     guidetolerance="10"
     inkscape:pageopacity="0"
     inkscape:pageshadow="2"
     inkscape:window-width="1640"
     inkscape:window-height="1025"
     id="namedview180"
     showgrid="false"
     inkscape:zoom="0.36500975"
     inkscape:cx="647.81987"
     inkscape:cy="622.73011"
     inkscape:window-x="40"
     inkscape:window-y="0"
     inkscape:window-maximized="1"
     inkscape:current-layer="svg178" />
  <defs
     id="defs46">
    <linearGradient
       xlink:href="#d"
       id="j"
       x1="496"
       y1="744"
       x2="506.71799"
       y2="784"
       gradientUnits="userSpaceOnUse"
       gradientTransform="matrix(1.42171,0,0,1.42171,-214.019,-285.26)" />
    <linearGradient
       id="f">
      <stop
         offset="0"
         stop-color="#f6f5f4"
         id="stop3" />
      <stop
         offset="1"
         stop-color="#c5c1ba"
         id="stop5" />
    </linearGradient>
    <linearGradient
       xlink:href="#a"
       id="h"
       x1="832"
       y1="776.125"
       x2="896"
       y2="776.125"
       gradientUnits="userSpaceOnUse"
       gradientTransform="matrix(1.1846,0,0,1.1846,-141.898,-97.468)" />
    <linearGradient
       id="b">
      <stop
         offset="0"
         stop-color="#ff7800"
         id="stop9" />
      <stop
         offset="1"
         stop-color="#ed333b"
         id="stop11" />
    </linearGradient>
    <linearGradient
       xlink:href="#c"
       id="k"
       x1="384.194"
       y1="742.01001"
       x2="384.194"
       y2="800"
       gradientUnits="userSpaceOnUse"
       gradientTransform="matrix(1.1846,0,0,1.1846,-94.514,-97.468)" />
    <linearGradient
       id="c">
      <stop
         offset="0"
         stop-color="#c0bfbc"
         id="stop15" />
      <stop
         offset=".696"
         stop-color="#8b8984"
         id="stop17" />
      <stop
         offset="1"
         stop-color="#969591"
         id="stop19" />
    </linearGradient>
    <linearGradient
       id="a">
      <stop
         offset="0"
         stop-color="#63452c"
         id="stop22" />
      <stop
         offset=".279"
         stop-color="#805939"
         id="stop24" />
      <stop
         offset="1"
         stop-color="#553b26"
         id="stop26" />
    </linearGradient>
    <linearGradient
       id="d">
      <stop
         offset="0"
         stop-color="#176340"
         id="stop29" />
      <stop
         offset="1"
         stop-color="#26a269"
         id="stop31" />
    </linearGradient>
    <linearGradient
       xlink:href="#e"
       id="l"
       x1="203.261"
       y1="784"
       x2="203.261"
       y2="800"
       gradientUnits="userSpaceOnUse"
       gradientTransform="matrix(1.1846,0,0,1.1846,-37.654,-97.024)" />
    <linearGradient
       id="e">
      <stop
         offset="0"
         stop-color="#9a9996"
         id="stop35" />
      <stop
         offset=".7"
         stop-color="#adaba8"
         id="stop37" />
      <stop
         offset="1"
         stop-color="#60605c"
         id="stop39" />
    </linearGradient>
    <linearGradient
       xlink:href="#f"
       id="i"
       x1="-689.755"
       y1="646.40997"
       x2="-689.755"
       y2="672"
       gradientUnits="userSpaceOnUse"
       gradientTransform="matrix(1.1846,0,0,1.1846,94.514,-97.468)" />
    <clipPath
       clipPathUnits="userSpaceOnUse"
       id="g">
      <path
         d="m 672,272 v 32 a 16,16 135 0 1 -16,16 h -64 a 16,16 135 0 0 -16,16 v 32 a 16,16 135 0 1 -16,16 h -32 a 16,16 135 0 0 -16,16 v 32 a 16,16 135 0 1 -16,16 h -96 a 16,16 135 0 0 -16,16 v 32 a 16,16 135 0 1 -16,16 h -32 a 16,16 45 0 1 -16,-16 v -96 a 16,16 45 0 0 -16,-16 h -96 a 16,16 135 0 0 -16,16 v 96 a 16,16 135 0 1 -16,16 h -32 a 16,16 135 0 0 -16,16 v 32 a 16,16 45 0 0 16,16 h 32 a 16,16 45 0 1 16,16 v 96 a 16,16 45 0 0 16,16 h 160 a 16,16 135 0 0 16,-16 v -96 a 16,16 135 0 1 16,-16 h 352 a 16,16 45 0 1 16,16 v 96 a 16,16 45 0 0 16,16 h 96 a 16,16 135 0 0 16,-16 v -96 a 16,16 135 0 1 16,-16 h 32 a 16,16 135 0 0 16,-16 V 400 A 16,16 45 0 0 944,384 H 912 A 16,16 45 0 1 896,368 V 272 A 16,16 45 0 0 880,256 H 688 a 16,16 135 0 0 -16,16 z"
         fill="#c061cb"
         stroke-width="6.859"
         stroke-linecap="round"
         paint-order="markers fill stroke"
         id="path43" />
    </clipPath>
  </defs>
  <g
     id="g246"
     transform="translate(-19.2068,-205.7896)">
    <g
       clip-path="url(#g)"
       transform="matrix(1.1846,0,0,1.1846,-132.422,-97.468)"
       stroke-width="0.844"
       paint-order="markers fill stroke"
       opacity="0.27"
       id="g70">
      <path
         fill="#3c3a3f"
         d="M 160,384 H 352 V 512 H 160 Z"
         id="path48" />
      <path
         fill="#5e5c64"
         d="m 128,512 h 64 v 96 h -64 z"
         id="path50" />
      <path
         fill="#48474c"
         d="M 192,480 H 416 V 704 H 192 Z"
         id="path52" />
      <path
         fill="#6a6871"
         d="m 384,448 h 192 v 64 H 384 Z"
         id="path54" />
      <path
         fill="#5e5c64"
         d="m 384,512 h 128 v 64 H 384 Z m 192,0 h -64 v 64 h 64 z"
         id="path56" />
      <path
         fill="#4a484f"
         d="m 576,352 h -96 v 96 h 96 z"
         id="path58" />
      <path
         fill="#65636b"
         d="M 960,384 H 768 v 192 h 192 z"
         id="path60" />
      <path
         fill="#5e5c64"
         d="M 928,256 H 768 v 128 h 160 z"
         id="path62" />
      <path
         fill="#4b4a50"
         d="M 768,256 H 640 v 64 h 128 z"
         id="path64" />
      <path
         fill="#4a484f"
         d="M 928,576 H 736 v 128 h 192 z"
         id="path66" />
      <path
         fill="#55545b"
         d="M 768,320 H 576 v 288 h 192 z"
         id="path68" />
    </g>
    <g
       stroke-width="0.844"
       id="g82">
      <path
         d="m 897.98,511.533 c 0,20.79 -15.947,37.645 -35.617,37.645 -19.67,0 -35.617,-16.854 -35.617,-37.645 0,-20.791 35.617,-113.702 35.617,-113.702 0,0 35.616,92.91 35.616,113.702 z"
         fill="#2ec27e"
         id="path78" />
      <path
         d="m 862.361,397.832 c 0,0 -1.192,3.192 -1.49,3.977 v 147.29 c 0.497,0.022 0.987,0.08 1.49,0.08 19.671,0 35.617,-16.856 35.617,-37.647 0,-20.79 -35.617,-113.7 -35.617,-113.7 z"
         fill="#26a269"
         id="path80" />
    </g>
    <g
       stroke-width="0.844"
       id="g88">
      <path
         d="m 962.71,632.274 c -17.287,17.287 -44.56,18.042 -60.915,1.687 -16.355,-16.355 -15.6,-43.627 1.688,-60.914 17.286,-17.287 124.15,-64.924 124.15,-64.924 0,0 -47.637,106.864 -64.923,124.151 z"
         fill="#2ec27e"
         id="path84" />
      <path
         d="m 1027.631,508.123 c 0,0 -3.646,1.662 -4.546,2.067 L 900.62,632.655 c 0.396,0.432 0.755,0.887 1.174,1.306 16.355,16.355 43.628,15.599 60.915,-1.688 17.287,-17.287 64.922,-124.15 64.922,-124.15 z"
         fill="#26a269"
         id="path86" />
    </g>
    <path
       d="m 861.887,499.26 -9.643,307.51 19.862,0.66 z"
       fill="#1b754c"
       id="path90" />
    <path
       d="m 988.579,545.608 -129.407,124.464 8.289,8.857 z"
       fill="#1a704b"
       id="path92" />
    <path
       d="m 843.688,793.647 h 75.814 l -8.292,56.564 h -59.23 z"
       fill="url(#h)"
       transform="matrix(1.80532,0,0,1.80532,-729.185,-684.696)"
       id="path94"
       style="fill:url(#h)" />
    <path
       d="m 915.844,850.21 14.97,-102.115 -37.659,0.272 -6.999,101.719 z"
       fill="#473220"
       id="path96" />
    <path
       d="m 858.885,637.293 -14.412,-8.718 1.468,-7.277 14.074,4.93 z"
       fill="#1b754c"
       id="path98" />
    <g
       transform="matrix(0.58796,0,0,0.58796,-1043.728,4068.203)"
       stroke-width="1.701"
       id="g118">
      <path
         d="m 2875.496,-6025.689 h 17.595 c 3.284,0 5.025,2.77 5.927,5.927 l 2.388,8.36 c 1.048,3.669 -3.072,6.888 -6.888,6.888 h -20.448 c -3.816,0 -7.937,-3.22 -6.889,-6.888 l 2.388,-8.36 c 0.902,-3.157 2.644,-5.927 5.927,-5.927 z"
         style="marker:none"
         fill="#f3f1ef"
         id="path100" />
      <path
         d="m 2797.496,-6008.975 h 105.942 c 3.284,0 5.366,2.692 5.927,5.928 l 3.98,22.966 c 0.598,3.454 -2.822,6.327 -6.328,6.327 h -113.1 c -3.505,0 -6.926,-2.873 -6.327,-6.327 l 3.98,-22.966 c 0.56,-3.236 2.643,-5.928 5.926,-5.928 z"
         style="marker:none"
         fill="#ffffff"
         id="path102" />
      <path
         d="m 2797.596,-5981.913 h 110.518 c 3.283,0 6.244,2.658 5.927,5.927 l -11.939,123.167 c -0.262,2.705 -2.188,4.905 -4.905,4.905 h -88.684 c -2.717,0 -4.643,-2.2 -4.905,-4.905 l -11.939,-123.167 c -0.317,-3.269 2.644,-5.927 5.927,-5.927 z"
         style="marker:none"
         fill="#deddda"
         id="path104" />
      <path
         d="m 2797.597,-5981.913 c -3.284,0 -6.245,2.659 -5.928,5.927 l 11.939,123.167 c 0.262,2.705 2.187,4.904 4.904,4.904 h 42.98 c -2.717,0 -4.642,-2.2 -4.905,-4.904 l -11.938,-123.167 c -0.317,-3.268 2.644,-5.927 5.927,-5.927 z"
         style="marker:none"
         fill="#9a9996"
         id="path106" />
      <path
         d="m 2797.597,-5981.913 c -3.284,0 -6.245,2.659 -5.928,5.927 l 6.137,63.318 h 42.98 l -6.137,-63.318 c -0.317,-3.268 2.644,-5.927 5.927,-5.927 z"
         style="marker:none"
         fill="#d2d0cc"
         id="path108" />
      <path
         d="m 2868.436,-6008.974 c 3.284,0 5.367,2.692 5.928,5.927 l 3.978,22.965 c 0.599,3.454 -2.82,6.328 -6.326,6.328 h 35.002 c 3.505,0 6.925,-2.874 6.326,-6.328 l -3.978,-22.965 c -0.561,-3.235 -2.645,-5.927 -5.928,-5.927 z"
         style="marker:none"
         fill="#deddda"
         id="path110" />
      <rect
         ry="5.0409999"
         rx="5.0409999"
         y="-5992.2598"
         x="2781.5391"
         height="36.612"
         width="140.461"
         style="marker:none"
         fill="#f6f5f4"
         id="rect112" />
      <path
         d="m 2906.082,-5950.077 a 38.204,38.204 0 0 0 -38.204,38.205 38.204,38.204 0 0 0 36.254,38.106 l 7.356,-75.878 a 38.204,38.204 0 0 0 -5.406,-0.432 z"
         style="marker:none"
         fill="#c0bfbc"
         id="path114" />
      <path
         d="m 2875.414,-5992.26 a 5.914,5.914 0 0 1 5.928,5.926 v 24.758 a 5.915,5.915 0 0 1 -5.928,5.928 h 40.658 a 5.915,5.915 0 0 0 5.928,-5.928 v -24.758 a 5.914,5.914 0 0 0 -5.928,-5.926 z"
         style="marker:none"
         fill="#deddda"
         id="path116" />
    </g>
    <g
       paint-order="markers fill stroke"
       id="g128">
      <path
         transform="matrix(-0.75,0,0,0.75,135.108,212.553)"
         fill="url(#i)"
         d="m -805.78,546.954 h 151.629 V 698.583 H -805.78 Z"
         id="path120"
         style="fill:url(#i)" />
      <path
         fill="#c0bfbc"
         d="m 540.43,622.768 h 85.29 V 736.49 h -85.29 z"
         id="path122" />
      <path
         fill="#57e389"
         d="m 632.83,629.875 h 99.506 v 99.506 h -99.507 z"
         id="path124" />
      <path
         fill="#a51d2d"
         d="m 547.538,629.875 h 71.076 v 99.506 h -71.076 z"
         id="path126" />
    </g>
    <g
       paint-order="markers fill stroke"
       id="g140">
      <path
         fill="#c0bfbc"
         d="m 563.568,736.49 h 85.291 v 113.72 h -85.29 z"
         id="path130" />
      <path
         fill="#f6f5f4"
         d="M 762.58,736.49 H 648.86 v 113.72 h 113.722 z"
         id="path132" />
      <path
         fill="#26a269"
         d="m 570.675,743.597 h 71.076 v 99.506 h -71.076 z"
         id="path134" />
      <path
         fill="#73a0d0"
         d="m 655.967,743.597 h 99.506 v 99.506 h -99.506 z"
         id="path136" />
      <path
         d="m 502.323,681.502 0.2,0.609 v -0.609 z m 0.2,57.882 -51.131,101.35 h 51.131 z"
         fill="url(#j)"
         transform="matrix(0.75,0,0,0.75,264.859,212.553)"
         id="path138"
         style="fill:url(#j)" />
    </g>
    <g
       id="g156">
      <path
         fill="#c0bfbc"
         paint-order="markers fill stroke"
         d="m 563.123,753.118 -81.467,-59.495 -49.654,97.613 81.467,59.495 z"
         id="path142" />
      <path
         d="m 517.738,791.236 49.654,-97.612 h -85.736 l -49.654,97.612 z"
         fill="#ffffff"
         id="path144" />
      <path
         fill="#deddda"
         paint-order="markers fill stroke"
         d="m 648.859,753.119 -81.467,-59.495 -49.654,97.613 81.467,59.495 z"
         id="path146" />
      <path
         d="m 454.667,850.21 h -98.994 l -94.066,-68.694 h 98.995 z"
         fill="url(#k)"
         transform="matrix(0.86607,0,0,0.86607,205.432,114.39)"
         id="path148"
         style="fill:url(#k)" />
      <path
         style="font-variation-settings:normal;marker:none"
         d="M 638.556,755.582 596.31,838.63 528.04,788.774 570.286,705.727 Z"
         fill="#e01b24"
         id="path150" />
      <path
         d="m 450.2,797.174 65.206,47.62 h 65.6 l -65.205,-47.62 z"
         fill="#1a5fb4"
         id="path152" />
      <path
         d="m 485.93,700.593 -42.564,83.674 h 70.098 l 42.565,-83.674 z"
         fill="#33d17a"
         id="path154" />
    </g>
    <g
       transform="matrix(2.25454,0,0,2.25454,-41.463,-1066.623)"
       id="g176">
      <rect
         width="132.675"
         height="137.355"
         x="-162.401"
         y="742.84802"
         rx="14.858"
         ry="14.036"
         transform="matrix(1,0,0.25882016,0.96593,0,0)"
         fill="#deddda"
         paint-order="markers fill stroke"
         id="rect158" />
      <path
         d="m 53.561,727.012 c -4.777,0 -6.967,3.07 -6.026,6.584 L 74.48,834.15 c 0.941,3.514 4.78,6.586 9.555,6.586 h 93.914 c 4.776,0 6.967,-3.072 6.026,-6.586 L 157.03,733.596 c -0.941,-3.514 -4.777,-6.584 -9.554,-6.584 z"
         fill="#3584e4"
         paint-order="markers fill stroke"
         id="path160" />
      <g
         stroke-width="3.109"
         id="g170">
        <path
           style="marker:none"
           d="m 111.557,761.272 a 3.152,2.413 41.185 0 0 -1.256,0.37 l -11.671,7.971 a 3.152,2.413 41.185 0 0 -0.739,2.389 l 4.272,15.943 a 3.152,2.413 41.185 0 0 2.019,2.389 l 15.943,7.971 a 3.152,2.413 41.185 0 0 2.758,0 l 11.671,-7.971 a 3.152,2.413 41.185 0 0 0.74,-2.389 l -4.273,-15.943 a 3.152,2.413 41.185 0 0 -2.019,-2.389 l -15.943,-7.972 a 3.152,2.413 41.185 0 0 -1.502,-0.37 z"
           fill="#ffffff"
           id="path162" />
        <path
           style="marker:none"
           d="m 128.878,770.77 -12.47,8.517 -17.034,-8.518 12.47,-8.517 z"
           fill="#98c1f1"
           id="path164" />
        <path
           style="marker:none"
           d="m 121.938,797.209 12.355,-8.325 -4.528,-16.97 -12.345,8.432 z"
           fill="#33d17a"
           id="path166" />
        <path
           d="m 120.462,797.156 -16.816,-8.325 -4.565,-16.97 16.863,8.432 z"
           style="marker:none"
           fill="#e01b24"
           id="path168" />
      </g>
      <path
         d="m 66.591,831.7 v 9.478 a 9.456,9.456 0 0 0 9.477,9.476 H 275.08 a 9.456,9.456 0 0 0 9.477,-9.476 V 831.7 H 76.068 Z"
         fill="url(#l)"
         paint-order="markers fill stroke"
         id="path172"
         style="fill:url(#l)" />
      <path
         d="m 60.334,831.7 2.596,9.478 c 1.387,5.063 7.888,9.476 13.138,9.476 h 66.337 c 5.25,0 9.477,-4.806 9.477,-9.476 V 831.7 H 76.068 Z"
         fill="#77767b"
         paint-order="markers fill stroke"
         id="path174" />
    </g>
  </g>
</svg>
